# xmcd
#
# Track frame offsets: 
#        150
#        19825
#        38592
#        57230
#        79677
#        95317
#        109900
#        128077
#        146447
#        191390
#        210902
#        220742
#        236457
#        247987
#
# Disc length: 3536 seconds
#
# Revision: 2
# Processed by: cddbd v1.5.1PL0 Copyright (c) Steve Scherf et al.
# Submitted via: ExactAudioCopy v0.95a5
#
DISCID=ae0dce0e
DTITLE=Various Artist - WLOQ Holiday Collection
DYEAR=1900
DGENRE=Christmas
TTITLE0=Oh,Tannenbaum
TTITLE1=Have Yourself A Merry Christmas
TTITLE2=Little Drummer Boy
TTITLE3=The First Nowell
TTITLE4=Hark The Herald Angels Sing
TTITLE5=Sleigh Ride
TTITLE6=Driving Home For Christmas
TTITLE7=Jingle Blues
TTITLE8=Favorite Things/We Three Kings
TTITLE9=Carol Of The Bells
TTITLE10=What Child Is This?
TTITLE11=Deck The Halls
TTITLE12=Joy To The World
TTITLE13=Silent Night
EXTD=
EXTT0=
EXTT1=
EXTT2=
EXTT3=
EXTT4=
EXTT5=
EXTT6=
EXTT7=
EXTT8=
EXTT9=
EXTT10=
EXTT11=
EXTT12=
EXTT13=
PLAYORDER=
